<svg width="32" height="32" viewBox="0 0 32 32" fill="none" xmlns="http://www.w3.org/2000/svg">
<rect width="32" height="32" rx="16" fill="#4E94F8"/>
<path d="M12.1436 11.0684L12.2422 11.167L12.3682 11.1084C13.3417 10.6557 14.511 10.3477 15.9395 10.3477C18.904 10.3477 20.824 11.6299 22.0088 12.917C22.6026 13.5621 23.0125 14.2094 23.2744 14.6982C23.4052 14.9424 23.4993 15.1471 23.5605 15.291C23.5909 15.3624 23.6131 15.419 23.6279 15.458C23.6418 15.4945 23.6495 15.5149 23.6504 15.5176V15.5195C23.6811 15.6111 23.6893 15.7084 23.6738 15.8027L23.6504 15.8955C23.6504 15.8955 23.6386 15.9288 23.6143 15.9902C23.59 16.0514 23.5531 16.1397 23.5029 16.25C23.4024 16.4707 23.2483 16.7796 23.0303 17.1348C22.5936 17.8461 21.905 18.7414 20.8926 19.4971L20.709 19.6348L23.3652 22.291L22.5234 23.1328L8.5127 9.12207L9.35449 8.28027L12.1436 11.0684ZM10.5713 13.8916C10.1203 14.4124 9.74784 14.9966 9.46582 15.626L9.42969 15.7061L9.46484 15.7861C9.8749 16.7287 11.5717 19.875 15.9395 19.875C16.1447 19.875 16.3404 19.8642 16.5303 19.8506L17.5977 20.918C17.0855 21.0107 16.534 21.0664 15.9395 21.0664C12.9749 21.0664 11.0548 19.7841 9.87012 18.4971C9.27636 17.852 8.86627 17.2045 8.60449 16.7158C8.47382 16.4718 8.38047 16.2678 8.31934 16.124C8.25881 15.9817 8.23115 15.9004 8.23047 15.8984L8.22949 15.8955L8.20605 15.8027C8.19062 15.7083 8.19875 15.6111 8.22949 15.5195V15.5186C8.23045 15.5158 8.23792 15.4947 8.25195 15.458C8.26697 15.4187 8.28964 15.3619 8.32031 15.29C8.38193 15.1456 8.47588 14.9404 8.60742 14.6953C8.84998 14.2434 9.2195 13.6575 9.74219 13.0625L10.5713 13.8916ZM15.9395 11.5391C15.0845 11.5319 14.2345 11.6698 13.4258 11.9473L13.125 12.0508L14.8857 13.8115L15.0127 13.749C15.2986 13.6086 15.6098 13.5234 15.9395 13.5234C17.1327 13.5235 18.123 14.5138 18.123 15.707C18.123 16.0366 18.0383 16.3477 17.8984 16.6348L17.8359 16.7617L17.9365 16.8623L19.7471 18.6719L19.8633 18.7881L19.999 18.6963C21.4617 17.7015 22.1666 16.3532 22.4141 15.7861L22.4492 15.707L22.4141 15.6279C22.0041 14.6855 20.3073 11.5391 15.9395 11.5391Z" fill="white" stroke="#4E94F8" stroke-width="0.396982"/>
</svg>
